<svg version="1.1" width="410" height="255" xmlns="http://www.w3.org/2000/svg">
<style>
 text { color: #9198a1; }
 tspan { fill: #f3f3f3; font-weight: 600 }
@keyframes slideIn { from { width: 0; } to { width: 660; } }#bar_back { animation: slideIn 1.7s ease-in forwards;}
</style>
<rect id="border" x="0" y="0" width="410" height="255" fill='#3D444D' rx="15" ry="15" />
<rect id="bg" x="1" y="1" width="408" height="253" rx="14.5" ry="14.5" />

<text id="title" x="20" y="40" font-size="18" font-weight="bold" fill='#fff' font-family="system-ui, -apple-system, sans-serif">Top Languages</text>
<defs>
	<clipPath id="roundedClip">
    	<rect id="bar_back" x="20" y="60" width="370" height="10" rx="5" ry="5">
     	</rect>
    </clipPath>
</defs>

<rect width="370" height="10" x="20" y="60" rx="5" ry="5" fill="#3D444D" />
<g clip-path="url(#roundedClip)">
	<rect x="20.000000" y="60" width="154.954000" height="10" fill="#00ADD8"> <title>Go 42.42%</title> </rect>
	<rect x="176.954000" y="60" width="140.487000" height="10" fill="#3178c6"> <title>TypeScript 38.51%</title> </rect>
	<rect x="319.441000" y="60" width="20.348000" height="10" fill="#f1e05a"> <title>JavaScript 6.04%</title> </rect>
	<rect x="341.789000" y="60" width="14.354000" height="10" fill="#dea584"> <title>Rust 4.42%</title> </rect>
	<rect x="358.143000" y="60" width="5.289000" height="10" fill="#A97BFF"> <title>Kotlin 1.97%</title> </rect>
	<rect x="365.432000" y="60" width="5.141000" height="10" fill="#c6538c"> <title>SCSS 1.93%</title> </rect>
	<rect x="372.573000" y="60" width="4.475000" height="10" fill="#3572A5"> <title>Python 1.75%</title> </rect>
	<rect x="379.048000" y="60" width="3.217000" height="10" fill="#00ADD8"> <title>Go Template 1.41%</title> </rect>
	<rect x="384.265000" y="60" width="0.627000" height="10" fill="#384d54"> <title>Dockerfile 0.71%</title> </rect>
	<rect x="386.892000" y="60" width="0.257000" height="10" fill="#89e051"> <title>Shell 0.61%</title> </rect>
	<rect x="389.149000" y="60" width="-1.223000" height="10" fill="#4F5D95"> <title>PHP 0.21%</title> </rect>
</g>

<circle cx="30" cy="105" r="6" fill="#00ADD8" />
<text x="46" y="109" font-size="13" font-family="system-ui, -apple-system, sans-serif" fill="currentColor"><tspan>Go</tspan> 42.42%</text>
<circle cx="225" cy="105" r="6" fill="#3178c6" />
<text x="241" y="109" font-size="13" font-family="system-ui, -apple-system, sans-serif" fill="currentColor"><tspan>TypeScript</tspan> 38.51%</text>
<circle cx="30" cy="129" r="6" fill="#f1e05a" />
<text x="46" y="133" font-size="13" font-family="system-ui, -apple-system, sans-serif" fill="currentColor"><tspan>JavaScript</tspan> 6.04%</text>
<circle cx="225" cy="129" r="6" fill="#dea584" />
<text x="241" y="133" font-size="13" font-family="system-ui, -apple-system, sans-serif" fill="currentColor"><tspan>Rust</tspan> 4.42%</text>
<circle cx="30" cy="153" r="6" fill="#A97BFF" />
<text x="46" y="157" font-size="13" font-family="system-ui, -apple-system, sans-serif" fill="currentColor"><tspan>Kotlin</tspan> 1.97%</text>
<circle cx="225" cy="153" r="6" fill="#c6538c" />
<text x="241" y="157" font-size="13" font-family="system-ui, -apple-system, sans-serif" fill="currentColor"><tspan>SCSS</tspan> 1.93%</text>
<circle cx="30" cy="177" r="6" fill="#3572A5" />
<text x="46" y="181" font-size="13" font-family="system-ui, -apple-system, sans-serif" fill="currentColor"><tspan>Python</tspan> 1.75%</text>
<circle cx="225" cy="177" r="6" fill="#00ADD8" />
<text x="241" y="181" font-size="13" font-family="system-ui, -apple-system, sans-serif" fill="currentColor"><tspan>Go Template</tspan> 1.41%</text>
<circle cx="30" cy="201" r="6" fill="#384d54" />
<text x="46" y="205" font-size="13" font-family="system-ui, -apple-system, sans-serif" fill="currentColor"><tspan>Dockerfile</tspan> 0.71%</text>
<circle cx="225" cy="201" r="6" fill="#89e051" />
<text x="241" y="205" font-size="13" font-family="system-ui, -apple-system, sans-serif" fill="currentColor"><tspan>Shell</tspan> 0.61%</text>
<circle cx="30" cy="225" r="6" fill="#4F5D95" />
<text x="46" y="229" font-size="13" font-family="system-ui, -apple-system, sans-serif" fill="currentColor"><tspan>PHP</tspan> 0.21%</text>

</svg>