<?xml version="1.0" encoding="UTF-8"?>
<svg width="410" height="230" xmlns="http://www.w3.org/2000/svg">
<style>text {
    color: #a89f9bff;
}

tspan {
    fill: #f3f3f3;
}

/* @media (prefers-color-scheme: dark) {
}
@media (prefers-color-scheme: light) {
    tspan {
        fill: #333;
        fill: #f3f3f3;
    }
} */

@keyframes fadeIn {
    from {
        opacity: 0;
    }
    to {
        opacity: 1;
    }
}
@keyframes slideIn {
    from {
        width: 0;
    }
    to {
        width: 660;
    }
}

#lang_legend,
#title {
    opacity: 0;
    animation: fadeIn 1s ease-in forwards;
}
#bar_back {
    animation: slideIn 1.7s ease-in forwards;
}
</style>
<rect id="border" x="1" y="1" width="408" height="228" fill='#19140fff' stroke-width="1" rx="15" ry="15" />
<text id="title" x="20" y="40" font-size="18" font-weight="bold" fill='#db4c0fff' font-family="system-ui, -apple-system, sans-serif">Most Used Languages</text>

<defs>
    <clipPath id="roundedClip">
        <rect id="bar_back" x="20" y="60" width="370" height="10" rx="5" ry="5">
        </rect>
    </clipPath>
</defs>
<rect width="370" height="10" x="20" y="60" rx="5" ry="5" fill='#ccc' />
<g clip-path="url(#roundedClip)">
    <rect x="20" y="60" width="230" height="10" fill="#3178c6"> <title>TypeScript 62.09%</title> </rect>
    <rect x="250" y="60" width="37" height="10" fill="#f1e05a"> <title>JavaScript 10.12%</title> </rect>
    <rect x="287" y="60" width="35" height="10" fill="#00ADD8"> <title>Go 9.42%</title> </rect>
    <rect x="322" y="60" width="26" height="10" fill="#dea584"> <title>Rust 6.96%</title> </rect>
    <rect x="348" y="60" width="12" height="10" fill="#c6538c"> <title>SCSS 3.13%</title> </rect>
    <rect x="360" y="60" width="11" height="10" fill="#A97BFF"> <title>Kotlin 3.10%</title> </rect>
    <rect x="371" y="60" width="10" height="10" fill="#3572A5"> <title>Python 2.76%</title> </rect>
    <rect x="381" y="60" width="4" height="10" fill="#384d54"> <title>Dockerfile 1.12%</title> </rect>
    <rect x="385" y="60" width="4" height="10" fill="#89e051"> <title>Shell 0.97%</title> </rect>
    <rect x="389" y="60" width="1" height="10" fill="#4F5D95"> <title>PHP 0.33%</title> </rect>
</g>
<g id="lang_legend">
<circle cx="30" cy="100" r="6" fill="#3178c6" />
<text x="46" y="104" font-size="13" font-family="system-ui, -apple-system, sans-serif" fill='currentColor'><tspan>TypeScript</tspan> 62.09%</text>
<circle cx="225" cy="100" r="6" fill="#f1e05a" />
<text x="241" y="104" font-size="13" font-family="system-ui, -apple-system, sans-serif" fill='currentColor'><tspan>JavaScript</tspan> 10.12%</text>
<circle cx="30" cy="124" r="6" fill="#00ADD8" />
<text x="46" y="128" font-size="13" font-family="system-ui, -apple-system, sans-serif" fill='currentColor'><tspan>Go</tspan> 9.42%</text>
<circle cx="225" cy="124" r="6" fill="#dea584" />
<text x="241" y="128" font-size="13" font-family="system-ui, -apple-system, sans-serif" fill='currentColor'><tspan>Rust</tspan> 6.96%</text>
<circle cx="30" cy="148" r="6" fill="#c6538c" />
<text x="46" y="152" font-size="13" font-family="system-ui, -apple-system, sans-serif" fill='currentColor'><tspan>SCSS</tspan> 3.13%</text>
<circle cx="225" cy="148" r="6" fill="#A97BFF" />
<text x="241" y="152" font-size="13" font-family="system-ui, -apple-system, sans-serif" fill='currentColor'><tspan>Kotlin</tspan> 3.10%</text>
<circle cx="30" cy="172" r="6" fill="#3572A5" />
<text x="46" y="176" font-size="13" font-family="system-ui, -apple-system, sans-serif" fill='currentColor'><tspan>Python</tspan> 2.76%</text>
<circle cx="225" cy="172" r="6" fill="#384d54" />
<text x="241" y="176" font-size="13" font-family="system-ui, -apple-system, sans-serif" fill='currentColor'><tspan>Dockerfile</tspan> 1.12%</text>
<circle cx="30" cy="196" r="6" fill="#89e051" />
<text x="46" y="200" font-size="13" font-family="system-ui, -apple-system, sans-serif" fill='currentColor'><tspan>Shell</tspan> 0.97%</text>
<circle cx="225" cy="196" r="6" fill="#4F5D95" />
<text x="241" y="200" font-size="13" font-family="system-ui, -apple-system, sans-serif" fill='currentColor'><tspan>PHP</tspan> 0.33%</text>
</g>
</svg>
