<svg width="118" height="25" viewBox="0 0 118 25" fill="none" xmlns="http://www.w3.org/2000/svg">
<g clip-path="url(#clip0_74_789)">
<rect width="118" height="25" rx="3" fill="#F8BB16"/>
<path d="M16 4.5C20.4183 4.5 24 8.08172 24 12.5C24 16.9183 20.4183 20.5 16 20.5C11.5817 20.5 8 16.9183 8 12.5C8 8.08172 11.5817 4.5 16 4.5ZM16 5.09961C11.9131 5.09961 8.59965 8.41312 8.59961 12.5C8.59961 16.5869 11.9131 19.9004 16 19.9004C20.0869 19.9004 23.4004 16.5869 23.4004 12.5C23.4004 8.41313 20.0869 5.09962 16 5.09961ZM16 5.5C19.866 5.50001 23 8.63404 23 12.5C23 16.366 19.866 19.5 16 19.5C12.9177 19.5 10.3025 17.5073 9.36816 14.7402H9.59961V14.4199H9.28027V14.46C9.09914 13.8379 9 13.1805 9 12.5C9.00004 8.63404 12.134 5.5 16 5.5ZM10.9375 15.5479L11.04 16.1797L15.8184 15.4072C16.0183 15.7485 16.1837 16.0592 16.3857 16.4082C16.5802 16.744 16.7862 17.0737 17.0146 17.3457C17.2423 17.6167 17.5115 17.8531 17.8379 17.9727C18.1762 18.0965 18.542 18.0823 18.9287 17.9131C19.3628 17.723 19.5782 17.3684 19.6543 16.9834C19.7272 16.6141 19.6753 16.2091 19.5908 15.8555C19.5052 15.4969 19.3785 15.1612 19.2744 14.918C19.2648 14.8955 19.2553 14.8735 19.2461 14.8525L21.9199 14.4199L21.8174 13.7881L10.9375 15.5479ZM18.6855 15.1699C18.7814 15.3939 18.8944 15.6929 18.9688 16.0039C19.0443 16.3202 19.0734 16.6212 19.0264 16.8594C18.9824 17.0817 18.8774 17.2372 18.6719 17.3271C18.4188 17.4379 18.2242 17.4331 18.0576 17.3721C17.8791 17.3067 17.6971 17.1634 17.5049 16.9346C17.3135 16.7067 17.1299 16.4159 16.9395 16.0869C16.8032 15.8515 16.6467 15.5663 16.4941 15.2979L17.1689 15.1885L18.2031 16.9795L18.7568 16.6602L17.8447 15.0791L18.5908 14.959C18.6178 15.016 18.6503 15.0875 18.6855 15.1699ZM9.91992 15.0596H10.2402V14.7402H9.91992V15.0596ZM11.2002 14.7402H11.5195V14.4199H11.2002V14.7402ZM9.91992 14.0996H10.2402V13.7803H9.91992V14.0996ZM10.5596 14.0996H10.8799V13.7803H10.5596V14.0996ZM20.7998 13.7803H21.1201V13.46H20.7998V13.7803ZM9.91992 13.46H10.2402V13.1396H9.91992V13.46ZM20.1602 13.46H20.4805V13.1396H20.1602V13.46ZM21.7598 13.46H22.0801V13.1396H21.7598V13.46ZM21.1201 13.1396H21.4404V12.8203H21.1201V13.1396ZM12.9326 10.2871L11.4922 8.84766L11.04 9.2998L12.4805 10.7402L10.5596 12.6602L11.0127 13.1123L12.9326 11.1924L14.7197 12.9805L15.1729 12.5273L13.3848 10.7402L14.8525 9.27246L14.4004 8.82031L12.9326 10.2871ZM18.6924 10.2871L16.9326 8.52734L16.4805 8.98047L18.2402 10.7402L16.4805 12.5L16.9326 12.9521L18.6924 11.1924L20.4805 12.9805L20.9326 12.5273L19.1445 10.7402L20.9326 8.95215L20.4805 8.5L18.6924 10.2871ZM21.7598 12.8203H22.0801V12.5H21.7598V12.8203Z" fill="white"/>
<path d="M32 -5.5L32 30.5" stroke="white"/>
<path d="M42.2667 8.17969V16H40.7037V8.17969H42.2667ZM47.4337 14.4692L48.4488 10.1885H49.3941L49.1632 11.9287L48.1642 16H47.3746L47.4337 14.4692ZM47.1436 10.1885L47.8365 14.4585L47.8311 16H46.9073L45.6988 10.1885H47.1436ZM50.1568 14.3887L50.8282 10.1885H52.2838L51.0699 16H50.1461L50.1568 14.3887ZM49.523 10.1885L50.5382 14.437L50.608 16H49.8185L48.8194 11.9395L48.5938 10.1885H49.523ZM52.8692 13.293V12.9009C52.8692 12.4461 52.9229 12.0433 53.0304 11.6924C53.1414 11.3415 53.2989 11.0479 53.503 10.8115C53.7071 10.5716 53.9524 10.3908 54.2389 10.269C54.5289 10.1437 54.853 10.0811 55.211 10.0811C55.5727 10.0811 55.8967 10.1437 56.1832 10.269C56.4732 10.3908 56.7203 10.5716 56.9244 10.8115C57.1321 11.0479 57.2914 11.3415 57.4024 11.6924C57.5134 12.0433 57.5689 12.4461 57.5689 12.9009V13.293C57.5689 13.7441 57.5134 14.1452 57.4024 14.4961C57.2914 14.847 57.1321 15.1424 56.9244 15.3823C56.7203 15.6222 56.475 15.8031 56.1886 15.9248C55.9021 16.0465 55.5798 16.1074 55.2218 16.1074C54.8637 16.1074 54.5396 16.0465 54.2496 15.9248C53.9631 15.8031 53.7161 15.6222 53.5084 15.3823C53.3007 15.1424 53.1414 14.847 53.0304 14.4961C52.9229 14.1452 52.8692 13.7441 52.8692 13.293ZM54.3731 12.9009V13.293C54.3731 13.5615 54.391 13.7943 54.4268 13.9912C54.4662 14.1882 54.5217 14.3511 54.5934 14.48C54.6685 14.6089 54.7581 14.7038 54.8619 14.7646C54.9657 14.8255 55.0857 14.856 55.2218 14.856C55.3578 14.856 55.4796 14.8255 55.587 14.7646C55.6944 14.7038 55.7822 14.6089 55.8502 14.48C55.9218 14.3511 55.9737 14.1882 56.006 13.9912C56.0418 13.7943 56.0597 13.5615 56.0597 13.293V12.9009C56.0597 12.6395 56.04 12.4103 56.0006 12.2134C55.9612 12.0129 55.9057 11.8499 55.8341 11.7246C55.7625 11.5957 55.6729 11.499 55.5655 11.4346C55.4617 11.3665 55.3435 11.3325 55.211 11.3325C55.0785 11.3325 54.9604 11.3665 54.8565 11.4346C54.7563 11.499 54.6685 11.5957 54.5934 11.7246C54.5217 11.8499 54.4662 12.0129 54.4268 12.2134C54.391 12.4103 54.3731 12.6395 54.3731 12.9009ZM60.0235 11.4829V16H58.5196V10.1885H59.9376L60.0235 11.4829ZM61.3932 10.1455L61.3717 11.644C61.3036 11.6297 61.2213 11.619 61.1246 11.6118C61.0315 11.6047 60.9491 11.6011 60.8775 11.6011C60.7092 11.6011 60.566 11.6279 60.4478 11.6816C60.3297 11.7318 60.2312 11.8088 60.1524 11.9126C60.0772 12.0129 60.0199 12.1382 59.9806 12.2886C59.9412 12.439 59.9179 12.609 59.9107 12.7988L59.6261 12.6914C59.6261 12.3118 59.6547 11.9645 59.712 11.6494C59.7729 11.3307 59.8624 11.055 59.9806 10.8223C60.0987 10.5859 60.2402 10.4033 60.4049 10.2744C60.5732 10.1455 60.7629 10.0811 60.9742 10.0811C61.0458 10.0811 61.121 10.0882 61.1998 10.1025C61.2822 10.1133 61.3466 10.1276 61.3932 10.1455ZM63.6651 7.74463V16H62.1612V7.74463H63.6651ZM66.7213 10.1885L64.6749 13.0781L63.4449 14.4585L62.9132 13.3145L63.8585 11.9341L64.9273 10.1885H66.7213ZM65.1529 16L63.8853 13.3306L64.922 12.3745L66.877 16H65.1529ZM72.5221 14.6626V11.9771C72.5221 11.8016 72.5006 11.6619 72.4576 11.5581C72.4182 11.4543 72.3574 11.3791 72.275 11.3325C72.1962 11.2824 72.0995 11.2573 71.985 11.2573C71.856 11.2573 71.7486 11.2842 71.6627 11.3379C71.5768 11.3916 71.5123 11.4686 71.4693 11.5688C71.4299 11.6691 71.4102 11.7891 71.4102 11.9287H69.901C69.901 11.6781 69.9493 11.4417 70.046 11.2197C70.1427 10.9941 70.2841 10.7972 70.4703 10.6289C70.6601 10.457 70.8857 10.3228 71.1471 10.2261C71.4085 10.1294 71.7021 10.0811 72.0279 10.0811C72.4146 10.0811 72.7584 10.1473 73.0592 10.2798C73.36 10.4087 73.5981 10.6146 73.7735 10.8975C73.949 11.1803 74.0367 11.5474 74.0367 11.9985V14.5874C74.0367 14.9132 74.0528 15.1782 74.0851 15.3823C74.1209 15.5864 74.1728 15.7619 74.2408 15.9087V16H72.7262C72.6581 15.8389 72.6062 15.6383 72.5704 15.3984C72.5382 15.1549 72.5221 14.9097 72.5221 14.6626ZM72.7047 12.4497L72.7101 13.3521H72.1568C72.0136 13.3521 71.8883 13.3753 71.7809 13.4219C71.677 13.4684 71.5893 13.5347 71.5177 13.6206C71.4461 13.703 71.3923 13.7996 71.3565 13.9106C71.3243 14.0216 71.3082 14.1398 71.3082 14.2651C71.3082 14.4048 71.3279 14.5229 71.3673 14.6196C71.4067 14.7163 71.4657 14.7897 71.5445 14.8398C71.6233 14.89 71.7164 14.915 71.8238 14.915C71.9885 14.915 72.1318 14.881 72.2535 14.813C72.3753 14.745 72.4648 14.6626 72.5221 14.5659C72.5829 14.4692 72.6026 14.3797 72.5811 14.2974L72.9249 14.8828C72.8819 15.0153 72.8228 15.1532 72.7477 15.2964C72.676 15.4396 72.5847 15.5721 72.4737 15.6938C72.3627 15.8156 72.2249 15.9159 72.0602 15.9946C71.899 16.0698 71.7074 16.1074 71.4854 16.1074C71.1739 16.1074 70.8893 16.0358 70.6314 15.8926C70.3736 15.7493 70.1695 15.5488 70.0191 15.291C69.8723 15.0332 69.7989 14.7271 69.7989 14.3726C69.7989 14.0789 69.8455 13.814 69.9386 13.5776C70.0352 13.3377 70.1785 13.1354 70.3683 12.9707C70.558 12.8024 70.7979 12.6735 71.088 12.584C71.378 12.4945 71.7182 12.4497 72.1085 12.4497H72.7047ZM77.7267 14.4316C77.7267 14.3314 77.6926 14.2419 77.6246 14.1631C77.5566 14.0843 77.4491 14.0037 77.3023 13.9214C77.1555 13.8354 76.9604 13.7406 76.7169 13.6367C76.4519 13.5293 76.2174 13.4183 76.0133 13.3037C75.8092 13.1891 75.6355 13.062 75.4923 12.9224C75.3526 12.7827 75.247 12.6234 75.1754 12.4443C75.1038 12.2653 75.068 12.0612 75.068 11.832C75.068 11.585 75.1127 11.3576 75.2022 11.1499C75.2953 10.9386 75.4278 10.7542 75.5997 10.5967C75.7716 10.4355 75.981 10.3102 76.2281 10.2207C76.4788 10.1276 76.7599 10.0811 77.0714 10.0811C77.5082 10.0811 77.8824 10.158 78.1939 10.312C78.509 10.4624 78.7507 10.6737 78.919 10.9458C79.0873 11.2179 79.1715 11.5348 79.1715 11.8965H77.6676C77.6676 11.7676 77.6479 11.653 77.6085 11.5527C77.5691 11.4489 77.5046 11.3683 77.4151 11.311C77.3292 11.2537 77.2128 11.2251 77.066 11.2251C76.9586 11.2251 76.8619 11.2484 76.776 11.2949C76.6936 11.3415 76.6274 11.4041 76.5772 11.4829C76.5307 11.5581 76.5074 11.6476 76.5074 11.7515C76.5074 11.8302 76.5235 11.9001 76.5558 11.9609C76.5916 12.0218 76.6471 12.0809 76.7223 12.1382C76.7975 12.1955 76.8977 12.2563 77.023 12.3208C77.1519 12.3817 77.3095 12.4497 77.4957 12.5249C77.8824 12.6681 78.1993 12.8221 78.4464 12.9868C78.697 13.1515 78.8832 13.3449 79.005 13.5669C79.1267 13.7853 79.1876 14.0557 79.1876 14.3779C79.1876 14.6357 79.1375 14.8703 79.0372 15.0815C78.9405 15.2928 78.7991 15.4754 78.6129 15.6294C78.4267 15.7834 78.2029 15.9015 77.9415 15.9839C77.6837 16.0662 77.3954 16.1074 77.0768 16.1074C76.6077 16.1074 76.212 16.0143 75.8897 15.8281C75.5675 15.6419 75.324 15.4038 75.1593 15.1138C74.9946 14.8201 74.9122 14.5158 74.9122 14.2007H76.3409C76.3481 14.394 76.3839 14.5462 76.4483 14.6572C76.5164 14.7646 76.6077 14.8398 76.7223 14.8828C76.8368 14.9258 76.964 14.9473 77.1036 14.9473C77.2433 14.9473 77.3578 14.9294 77.4474 14.8936C77.5405 14.8542 77.6103 14.7951 77.6568 14.7163C77.7034 14.634 77.7267 14.5391 77.7267 14.4316ZM85.2408 14.6626V11.9771C85.2408 11.8016 85.2193 11.6619 85.1764 11.5581C85.137 11.4543 85.0761 11.3791 84.9937 11.3325C84.915 11.2824 84.8183 11.2573 84.7037 11.2573C84.5748 11.2573 84.4674 11.2842 84.3814 11.3379C84.2955 11.3916 84.231 11.4686 84.1881 11.5688C84.1487 11.6691 84.129 11.7891 84.129 11.9287H82.6197C82.6197 11.6781 82.6681 11.4417 82.7647 11.2197C82.8614 10.9941 83.0029 10.7972 83.1891 10.6289C83.3788 10.457 83.6044 10.3228 83.8658 10.2261C84.1272 10.1294 84.4208 10.0811 84.7467 10.0811C85.1334 10.0811 85.4771 10.1473 85.7779 10.2798C86.0787 10.4087 86.3168 10.6146 86.4923 10.8975C86.6677 11.1803 86.7555 11.5474 86.7555 11.9985V14.5874C86.7555 14.9132 86.7716 15.1782 86.8038 15.3823C86.8396 15.5864 86.8915 15.7619 86.9596 15.9087V16H85.4449C85.3769 15.8389 85.325 15.6383 85.2892 15.3984C85.2569 15.1549 85.2408 14.9097 85.2408 14.6626ZM85.4234 12.4497L85.4288 13.3521H84.8756C84.7324 13.3521 84.607 13.3753 84.4996 13.4219C84.3958 13.4684 84.308 13.5347 84.2364 13.6206C84.1648 13.703 84.1111 13.7996 84.0753 13.9106C84.0431 14.0216 84.0269 14.1398 84.0269 14.2651C84.0269 14.4048 84.0466 14.5229 84.086 14.6196C84.1254 14.7163 84.1845 14.7897 84.2633 14.8398C84.3421 14.89 84.4352 14.915 84.5426 14.915C84.7073 14.915 84.8505 14.881 84.9723 14.813C85.094 14.745 85.1835 14.6626 85.2408 14.5659C85.3017 14.4692 85.3214 14.3797 85.2999 14.2974L85.6436 14.8828C85.6007 15.0153 85.5416 15.1532 85.4664 15.2964C85.3948 15.4396 85.3035 15.5721 85.1925 15.6938C85.0815 15.8156 84.9436 15.9159 84.7789 15.9946C84.6178 16.0698 84.4262 16.1074 84.2042 16.1074C83.8927 16.1074 83.608 16.0358 83.3502 15.8926C83.0924 15.7493 82.8883 15.5488 82.7379 15.291C82.5911 15.0332 82.5177 14.7271 82.5177 14.3726C82.5177 14.0789 82.5642 13.814 82.6573 13.5776C82.754 13.3377 82.8972 13.1354 83.087 12.9707C83.2768 12.8024 83.5167 12.6735 83.8067 12.584C84.0968 12.4945 84.4369 12.4497 84.8272 12.4497H85.4234ZM93.7862 13.9429C93.7862 13.8032 93.7737 13.6761 93.7486 13.5615C93.7236 13.4469 93.6699 13.3413 93.5875 13.2446C93.5087 13.1479 93.3923 13.0513 93.2384 12.9546C93.088 12.8579 92.891 12.7576 92.6476 12.6538C92.3575 12.5321 92.0764 12.4032 91.8043 12.2671C91.5322 12.1274 91.2869 11.9663 91.0685 11.7837C90.85 11.6011 90.6764 11.3862 90.5475 11.1392C90.4221 10.8885 90.3595 10.5949 90.3595 10.2583C90.3595 9.92887 90.4185 9.62988 90.5367 9.36133C90.6585 9.09277 90.8303 8.86361 91.0523 8.67383C91.2743 8.48047 91.5339 8.33187 91.8311 8.22803C92.1319 8.12419 92.4667 8.07227 92.8355 8.07227C93.3368 8.07227 93.7701 8.17611 94.1353 8.38379C94.5042 8.59147 94.7888 8.87614 94.9893 9.23779C95.1935 9.59945 95.2955 10.0148 95.2955 10.4839H93.7271C93.7271 10.2619 93.6949 10.0667 93.6305 9.89844C93.5696 9.72656 93.4711 9.59229 93.3351 9.49561C93.199 9.39893 93.0235 9.35059 92.8087 9.35059C92.6082 9.35059 92.4417 9.39176 92.3092 9.47412C92.1803 9.5529 92.0836 9.66211 92.0191 9.80176C91.9583 9.93783 91.9278 10.0918 91.9278 10.2637C91.9278 10.3926 91.9583 10.509 92.0191 10.6128C92.0836 10.7131 92.1713 10.8044 92.2823 10.8867C92.3933 10.9655 92.524 11.0425 92.6744 11.1177C92.8284 11.1929 92.9967 11.2663 93.1793 11.3379C93.5338 11.4775 93.8471 11.6315 94.1192 11.7998C94.3914 11.9645 94.6187 12.1507 94.8014 12.3584C94.984 12.5625 95.1218 12.7935 95.2149 13.0513C95.308 13.3091 95.3546 13.6027 95.3546 13.9321C95.3546 14.258 95.2973 14.5552 95.1827 14.8237C95.0717 15.0887 94.9088 15.3179 94.6939 15.5112C94.4791 15.701 94.2195 15.8478 93.9151 15.9517C93.6143 16.0555 93.2778 16.1074 92.9054 16.1074C92.5437 16.1074 92.2018 16.0573 91.8795 15.957C91.5572 15.8532 91.2726 15.6974 91.0255 15.4897C90.782 15.2785 90.5904 15.0117 90.4508 14.6895C90.3111 14.3636 90.2413 13.9787 90.2413 13.5347H91.815C91.815 13.771 91.8383 13.9733 91.8849 14.1416C91.9314 14.3063 92.003 14.4388 92.0997 14.5391C92.1964 14.6357 92.3145 14.7091 92.4542 14.7593C92.5974 14.8058 92.7603 14.8291 92.943 14.8291C93.1506 14.8291 93.3154 14.7897 93.4371 14.7109C93.5624 14.6322 93.6519 14.5265 93.7057 14.394C93.7594 14.2616 93.7862 14.1112 93.7862 13.9429ZM98.0133 14.8291L99.2647 8.17969H100.092L100.339 9.21094L98.9962 16H98.0992L98.0133 14.8291ZM97.5836 8.17969L98.5934 14.8452L98.4215 16H97.4332L96.0313 8.17969H97.5836ZM101.247 14.8184L102.251 8.17969H103.798L102.407 16H101.413L101.247 14.8184ZM100.57 8.17969L101.832 14.8667L101.73 16H100.833L99.4957 9.2002L99.7481 8.17969H100.57ZM109.153 14.7002V16H105.753V14.7002H109.153ZM106.242 8.17969V16H104.668V8.17969H106.242ZM108.696 11.3486V12.6108H105.753V11.3486H108.696ZM109.142 8.17969V9.48486H105.753V8.17969H109.142Z" fill="white"/>
</g>
<defs>
<clipPath id="clip0_74_789">
<rect width="118" height="25" rx="3" fill="white"/>
</clipPath>
</defs>
</svg>
