<svg width="129" height="25" viewBox="0 0 129 25" fill="none" xmlns="http://www.w3.org/2000/svg">
<g clip-path="url(#clip0_78_821)">
<rect width="129" height="25" rx="3" fill="#372F00"/>
<path d="M16 4.5C20.4183 4.5 24 8.08172 24 12.5C24 16.9183 20.4183 20.5 16 20.5C11.5817 20.5 8 16.9183 8 12.5C8 8.08172 11.5817 4.5 16 4.5ZM16 5.09961C11.9131 5.09961 8.59965 8.41312 8.59961 12.5C8.59961 16.5869 11.9131 19.9004 16 19.9004C20.0869 19.9004 23.4004 16.5869 23.4004 12.5C23.4004 8.41313 20.0869 5.09962 16 5.09961ZM16 5.5C19.866 5.50001 23 8.63404 23 12.5C23 16.366 19.866 19.5 16 19.5C12.9177 19.5 10.3025 17.5073 9.36816 14.7402H9.59961V14.4199H9.28027V14.46C9.09914 13.8379 9 13.1805 9 12.5C9.00004 8.63404 12.134 5.5 16 5.5ZM10.9375 15.5479L11.04 16.1797L15.8184 15.4072C16.0183 15.7485 16.1837 16.0592 16.3857 16.4082C16.5802 16.744 16.7862 17.0737 17.0146 17.3457C17.2423 17.6167 17.5115 17.8531 17.8379 17.9727C18.1762 18.0965 18.542 18.0823 18.9287 17.9131C19.3628 17.723 19.5782 17.3684 19.6543 16.9834C19.7272 16.6141 19.6753 16.2091 19.5908 15.8555C19.5052 15.4969 19.3785 15.1612 19.2744 14.918C19.2648 14.8955 19.2553 14.8735 19.2461 14.8525L21.9199 14.4199L21.8174 13.7881L10.9375 15.5479ZM18.6855 15.1699C18.7814 15.3939 18.8944 15.6929 18.9688 16.0039C19.0443 16.3202 19.0734 16.6212 19.0264 16.8594C18.9824 17.0817 18.8774 17.2372 18.6719 17.3271C18.4188 17.4379 18.2242 17.4331 18.0576 17.3721C17.8791 17.3067 17.6971 17.1634 17.5049 16.9346C17.3135 16.7067 17.1299 16.4159 16.9395 16.0869C16.8032 15.8515 16.6467 15.5663 16.4941 15.2979L17.1689 15.1885L18.2031 16.9795L18.7568 16.6602L17.8447 15.0791L18.5908 14.959C18.6178 15.016 18.6503 15.0875 18.6855 15.1699ZM9.91992 15.0596H10.2402V14.7402H9.91992V15.0596ZM11.2002 14.7402H11.5195V14.4199H11.2002V14.7402ZM9.91992 14.0996H10.2402V13.7803H9.91992V14.0996ZM10.5596 14.0996H10.8799V13.7803H10.5596V14.0996ZM20.7998 13.7803H21.1201V13.46H20.7998V13.7803ZM9.91992 13.46H10.2402V13.1396H9.91992V13.46ZM20.1602 13.46H20.4805V13.1396H20.1602V13.46ZM21.7598 13.46H22.0801V13.1396H21.7598V13.46ZM21.1201 13.1396H21.4404V12.8203H21.1201V13.1396ZM12.9326 10.2871L11.4922 8.84766L11.04 9.2998L12.4805 10.7402L10.5596 12.6602L11.0127 13.1123L12.9326 11.1924L14.7197 12.9805L15.1729 12.5273L13.3848 10.7402L14.8525 9.27246L14.4004 8.82031L12.9326 10.2871ZM18.6924 10.2871L16.9326 8.52734L16.4805 8.98047L18.2402 10.7402L16.4805 12.5L16.9326 12.9521L18.6924 11.1924L20.4805 12.9805L20.9326 12.5273L19.1445 10.7402L20.9326 8.95215L20.4805 8.5L18.6924 10.2871ZM21.7598 12.8203H22.0801V12.5H21.7598V12.8203Z" fill="white"/>
<path d="M32 -5.5L32 30.5" stroke="white"/>
<path d="M43.9425 13.9429C43.9425 13.8032 43.9299 13.6761 43.9049 13.5615C43.8798 13.4469 43.8261 13.3413 43.7437 13.2446C43.665 13.1479 43.5486 13.0513 43.3946 12.9546C43.2442 12.8579 43.0473 12.7576 42.8038 12.6538C42.5138 12.5321 42.2327 12.4032 41.9605 12.2671C41.6884 12.1274 41.4431 11.9663 41.2247 11.7837C41.0063 11.6011 40.8326 11.3862 40.7037 11.1392C40.5784 10.8885 40.5157 10.5949 40.5157 10.2583C40.5157 9.92887 40.5748 9.62988 40.693 9.36133C40.8147 9.09277 40.9866 8.86361 41.2086 8.67383C41.4306 8.48047 41.6902 8.33187 41.9874 8.22803C42.2882 8.12419 42.623 8.07227 42.9918 8.07227C43.4931 8.07227 43.9264 8.17611 44.2916 8.38379C44.6604 8.59147 44.9451 8.87614 45.1456 9.23779C45.3497 9.59945 45.4518 10.0148 45.4518 10.4839H43.8834C43.8834 10.2619 43.8512 10.0667 43.7867 9.89844C43.7258 9.72656 43.6274 9.59229 43.4913 9.49561C43.3552 9.39893 43.1798 9.35059 42.9649 9.35059C42.7644 9.35059 42.5979 9.39176 42.4654 9.47412C42.3365 9.5529 42.2398 9.66211 42.1754 9.80176C42.1145 9.93783 42.0841 10.0918 42.0841 10.2637C42.0841 10.3926 42.1145 10.509 42.1754 10.6128C42.2398 10.7131 42.3276 10.8044 42.4386 10.8867C42.5496 10.9655 42.6803 11.0425 42.8307 11.1177C42.9846 11.1929 43.1529 11.2663 43.3355 11.3379C43.69 11.4775 44.0033 11.6315 44.2755 11.7998C44.5476 11.9645 44.775 12.1507 44.9576 12.3584C45.1402 12.5625 45.2781 12.7935 45.3712 13.0513C45.4643 13.3091 45.5108 13.6027 45.5108 13.9321C45.5108 14.258 45.4535 14.5552 45.339 14.8237C45.228 15.0887 45.065 15.3179 44.8502 15.5112C44.6353 15.701 44.3757 15.8478 44.0714 15.9517C43.7706 16.0555 43.434 16.1074 43.0616 16.1074C42.7 16.1074 42.358 16.0573 42.0357 15.957C41.7135 15.8532 41.4288 15.6974 41.1817 15.4897C40.9382 15.2785 40.7467 15.0117 40.607 14.6895C40.4674 14.3636 40.3976 13.9787 40.3976 13.5347H41.9713C41.9713 13.771 41.9946 13.9733 42.0411 14.1416C42.0877 14.3063 42.1593 14.4388 42.256 14.5391C42.3526 14.6357 42.4708 14.7091 42.6104 14.7593C42.7537 14.8058 42.9166 14.8291 43.0992 14.8291C43.3069 14.8291 43.4716 14.7897 43.5934 14.7109C43.7187 14.6322 43.8082 14.5265 43.8619 14.394C43.9156 14.2616 43.9425 14.1112 43.9425 13.9429ZM46.3272 13.293V12.9009C46.3272 12.4461 46.381 12.0433 46.4884 11.6924C46.5994 11.3415 46.7569 11.0479 46.961 10.8115C47.1651 10.5716 47.4104 10.3908 47.6969 10.269C47.9869 10.1437 48.311 10.0811 48.669 10.0811C49.0307 10.0811 49.3547 10.1437 49.6412 10.269C49.9312 10.3908 50.1783 10.5716 50.3824 10.8115C50.5901 11.0479 50.7494 11.3415 50.8604 11.6924C50.9714 12.0433 51.0269 12.4461 51.0269 12.9009V13.293C51.0269 13.7441 50.9714 14.1452 50.8604 14.4961C50.7494 14.847 50.5901 15.1424 50.3824 15.3823C50.1783 15.6222 49.933 15.8031 49.6466 15.9248C49.3601 16.0465 49.0379 16.1074 48.6798 16.1074C48.3217 16.1074 47.9977 16.0465 47.7076 15.9248C47.4212 15.8031 47.1741 15.6222 46.9664 15.3823C46.7587 15.1424 46.5994 14.847 46.4884 14.4961C46.381 14.1452 46.3272 13.7441 46.3272 13.293ZM47.8311 12.9009V13.293C47.8311 13.5615 47.849 13.7943 47.8849 13.9912C47.9242 14.1882 47.9797 14.3511 48.0514 14.48C48.1266 14.6089 48.2161 14.7038 48.3199 14.7646C48.4238 14.8255 48.5437 14.856 48.6798 14.856C48.8158 14.856 48.9376 14.8255 49.045 14.7646C49.1524 14.7038 49.2402 14.6089 49.3082 14.48C49.3798 14.3511 49.4317 14.1882 49.464 13.9912C49.4998 13.7943 49.5177 13.5615 49.5177 13.293V12.9009C49.5177 12.6395 49.498 12.4103 49.4586 12.2134C49.4192 12.0129 49.3637 11.8499 49.2921 11.7246C49.2205 11.5957 49.131 11.499 49.0235 11.4346C48.9197 11.3665 48.8015 11.3325 48.669 11.3325C48.5365 11.3325 48.4184 11.3665 48.3145 11.4346C48.2143 11.499 48.1266 11.5957 48.0514 11.7246C47.9797 11.8499 47.9242 12.0129 47.8849 12.2134C47.849 12.4103 47.8311 12.6395 47.8311 12.9009ZM53.8414 16H52.3321V9.68359C52.3321 9.236 52.4091 8.86182 52.5631 8.56104C52.7171 8.26025 52.9337 8.03109 53.213 7.87354C53.4959 7.71598 53.8307 7.63721 54.2174 7.63721C54.3427 7.63721 54.4609 7.64795 54.5719 7.66943C54.6865 7.68734 54.7975 7.7124 54.9049 7.74463L54.8888 8.94238C54.8422 8.92806 54.7867 8.91732 54.7223 8.91016C54.6578 8.90299 54.5898 8.89941 54.5182 8.89941C54.3749 8.89941 54.2514 8.92985 54.1476 8.99072C54.0473 9.0516 53.9703 9.13932 53.9166 9.25391C53.8665 9.36849 53.8414 9.51172 53.8414 9.68359V16ZM54.7491 10.1885V11.3218H51.6231V10.1885H54.7491ZM58.1222 10.1885V11.3218H55.1573V10.1885H58.1222ZM55.8394 8.75439H57.338V14.2275C57.338 14.3851 57.3541 14.5086 57.3863 14.5981C57.4185 14.6841 57.4669 14.745 57.5313 14.7808C57.5994 14.813 57.6871 14.8291 57.7945 14.8291C57.8733 14.8291 57.9449 14.8255 58.0094 14.8184C58.0738 14.8076 58.1222 14.7969 58.1544 14.7861V15.9624C58.0362 16.009 57.9109 16.0448 57.7784 16.0698C57.6495 16.0949 57.4955 16.1074 57.3165 16.1074C57.0157 16.1074 56.7543 16.0519 56.5323 15.9409C56.3139 15.8263 56.1438 15.6419 56.0221 15.3877C55.9003 15.1335 55.8394 14.8005 55.8394 14.3887V8.75439ZM60.3243 14.4692L61.3394 10.1885H62.2848L62.0538 11.9287L61.0548 16H60.2652L60.3243 14.4692ZM60.0343 10.1885L60.7271 14.4585L60.7218 16H59.7979L58.5894 10.1885H60.0343ZM63.0475 14.3887L63.7188 10.1885H65.1744L63.9605 16H63.0367L63.0475 14.3887ZM62.4137 10.1885L63.4288 14.437L63.4986 16H62.7091L61.7101 11.9395L61.4845 10.1885H62.4137ZM68.4937 14.6626V11.9771C68.4937 11.8016 68.4723 11.6619 68.4293 11.5581C68.3899 11.4543 68.329 11.3791 68.2467 11.3325C68.1679 11.2824 68.0712 11.2573 67.9566 11.2573C67.8277 11.2573 67.7203 11.2842 67.6344 11.3379C67.5484 11.3916 67.484 11.4686 67.441 11.5688C67.4016 11.6691 67.3819 11.7891 67.3819 11.9287H65.8727C65.8727 11.6781 65.921 11.4417 66.0177 11.2197C66.1143 10.9941 66.2558 10.7972 66.442 10.6289C66.6318 10.457 66.8574 10.3228 67.1187 10.2261C67.3801 10.1294 67.6738 10.0811 67.9996 10.0811C68.3863 10.0811 68.7301 10.1473 69.0309 10.2798C69.3316 10.4087 69.5698 10.6146 69.7452 10.8975C69.9207 11.1803 70.0084 11.5474 70.0084 11.9985V14.5874C70.0084 14.9132 70.0245 15.1782 70.0567 15.3823C70.0925 15.5864 70.1445 15.7619 70.2125 15.9087V16H68.6978C68.6298 15.8389 68.5779 15.6383 68.5421 15.3984C68.5099 15.1549 68.4937 14.9097 68.4937 14.6626ZM68.6764 12.4497L68.6817 13.3521H68.1285C67.9853 13.3521 67.86 13.3753 67.7525 13.4219C67.6487 13.4684 67.561 13.5347 67.4893 13.6206C67.4177 13.703 67.364 13.7996 67.3282 13.9106C67.296 14.0216 67.2799 14.1398 67.2799 14.2651C67.2799 14.4048 67.2996 14.5229 67.339 14.6196C67.3783 14.7163 67.4374 14.7897 67.5162 14.8398C67.595 14.89 67.6881 14.915 67.7955 14.915C67.9602 14.915 68.1034 14.881 68.2252 14.813C68.3469 14.745 68.4365 14.6626 68.4937 14.5659C68.5546 14.4692 68.5743 14.3797 68.5528 14.2974L68.8966 14.8828C68.8536 15.0153 68.7945 15.1532 68.7193 15.2964C68.6477 15.4396 68.5564 15.5721 68.4454 15.6938C68.3344 15.8156 68.1965 15.9159 68.0318 15.9946C67.8707 16.0698 67.6791 16.1074 67.4571 16.1074C67.1456 16.1074 66.8609 16.0358 66.6031 15.8926C66.3453 15.7493 66.1412 15.5488 65.9908 15.291C65.844 15.0332 65.7706 14.7271 65.7706 14.3726C65.7706 14.0789 65.8171 13.814 65.9102 13.5776C66.0069 13.3377 66.1502 13.1354 66.3399 12.9707C66.5297 12.8024 66.7696 12.6735 67.0597 12.584C67.3497 12.4945 67.6899 12.4497 68.0802 12.4497H68.6764ZM72.6241 11.4829V16H71.1202V10.1885H72.5382L72.6241 11.4829ZM73.9937 10.1455L73.9723 11.644C73.9042 11.6297 73.8219 11.619 73.7252 11.6118C73.6321 11.6047 73.5497 11.6011 73.4781 11.6011C73.3098 11.6011 73.1666 11.6279 73.0484 11.6816C72.9303 11.7318 72.8318 11.8088 72.753 11.9126C72.6778 12.0129 72.6205 12.1382 72.5811 12.2886C72.5418 12.439 72.5185 12.609 72.5113 12.7988L72.2267 12.6914C72.2267 12.3118 72.2553 11.9645 72.3126 11.6494C72.3735 11.3307 72.463 11.055 72.5811 10.8223C72.6993 10.5859 72.8407 10.4033 73.0055 10.2744C73.1738 10.1455 73.3635 10.0811 73.5748 10.0811C73.6464 10.0811 73.7216 10.0882 73.8004 10.1025C73.8827 10.1133 73.9472 10.1276 73.9937 10.1455ZM76.9962 16.1074C76.5987 16.1074 76.246 16.0465 75.9381 15.9248C75.6337 15.8031 75.3759 15.6276 75.1646 15.3984C74.9534 15.1657 74.7922 14.8846 74.6812 14.5552C74.5702 14.2257 74.5147 13.8498 74.5147 13.4272V12.9492C74.5147 12.4766 74.5685 12.063 74.6759 11.7085C74.7833 11.3504 74.9355 11.0496 75.1324 10.8062C75.3294 10.5627 75.5711 10.3818 75.8575 10.2637C76.1476 10.1419 76.4752 10.0811 76.8404 10.0811C77.2057 10.0811 77.5261 10.1419 77.8018 10.2637C78.0811 10.3818 78.3121 10.5609 78.4947 10.8008C78.6773 11.0371 78.8152 11.3307 78.9083 11.6816C79.0014 12.0326 79.0479 12.4408 79.0479 12.9062V13.5938H75.1539V12.5356H77.5709V12.4014C77.5709 12.165 77.5458 11.9681 77.4957 11.8105C77.4456 11.6494 77.3668 11.5295 77.2594 11.4507C77.1519 11.3719 77.0087 11.3325 76.8297 11.3325C76.6793 11.3325 76.5522 11.363 76.4483 11.4238C76.3445 11.4847 76.2621 11.5796 76.2013 11.7085C76.1404 11.8374 76.0956 12.0057 76.067 12.2134C76.0383 12.4175 76.024 12.6628 76.024 12.9492V13.4272C76.024 13.6958 76.0473 13.9214 76.0938 14.104C76.1404 14.283 76.2084 14.4299 76.2979 14.5444C76.391 14.6554 76.5038 14.736 76.6363 14.7861C76.7688 14.8327 76.9228 14.856 77.0982 14.856C77.3632 14.856 77.6013 14.8094 77.8126 14.7163C78.0274 14.6196 78.2101 14.4889 78.3604 14.3242L78.962 15.2373C78.8582 15.3734 78.7149 15.5094 78.5323 15.6455C78.3497 15.7816 78.1313 15.8926 77.877 15.9785C77.6228 16.0645 77.3292 16.1074 76.9962 16.1074ZM87.0133 14.7002V16H83.6134V14.7002H87.0133ZM84.1021 8.17969V16H82.5284V8.17969H84.1021ZM86.5567 11.3486V12.6108H83.6134V11.3486H86.5567ZM87.0025 8.17969V9.48486H83.6134V8.17969H87.0025ZM89.3336 11.4292V16H87.8243V10.1885H89.2315L89.3336 11.4292ZM89.108 12.8955L88.7052 12.9062C88.698 12.4694 88.7392 12.0773 88.8287 11.73C88.9218 11.3826 89.0525 11.0872 89.2208 10.8438C89.3927 10.5967 89.5968 10.4087 89.8331 10.2798C90.0694 10.1473 90.3362 10.0811 90.6334 10.0811C90.859 10.0811 91.0649 10.1204 91.2511 10.1992C91.4408 10.278 91.6038 10.4033 91.7398 10.5752C91.8759 10.7471 91.9815 10.9744 92.0567 11.2573C92.1319 11.5402 92.1695 11.8893 92.1695 12.3047V16H90.6602V12.2939C90.6602 12.0433 90.6352 11.8499 90.5851 11.7139C90.5349 11.5742 90.4597 11.4775 90.3595 11.4238C90.2628 11.3665 90.1375 11.3379 89.9835 11.3379C89.8403 11.3379 89.7131 11.3773 89.6021 11.4561C89.4911 11.5348 89.398 11.6458 89.3228 11.7891C89.2512 11.9287 89.1957 12.0934 89.1563 12.2832C89.1205 12.473 89.1044 12.6771 89.108 12.8955ZM96.3268 10.1885H97.691V16C97.691 16.5299 97.589 16.9632 97.3849 17.2998C97.1843 17.64 96.9032 17.8888 96.5416 18.0464C96.1835 18.2075 95.7646 18.2881 95.2848 18.2881C95.1021 18.2881 94.8963 18.263 94.6671 18.2129C94.4415 18.1628 94.2231 18.0858 94.0118 17.9819C93.8005 17.8817 93.6269 17.7599 93.4908 17.6167L94.0011 16.5747C94.1407 16.7144 94.3233 16.8325 94.5489 16.9292C94.7745 17.0295 94.9965 17.0796 95.2149 17.0796C95.4262 17.0796 95.6017 17.0456 95.7413 16.9775C95.8845 16.9131 95.992 16.8021 96.0636 16.6445C96.1388 16.487 96.1764 16.2757 96.1764 16.0107V11.5366L96.3268 10.1885ZM93.0826 13.2983V12.9116C93.0826 12.439 93.1274 12.0254 93.2169 11.6709C93.3064 11.3164 93.4353 11.021 93.6036 10.7847C93.7719 10.5483 93.9778 10.3729 94.2213 10.2583C94.4684 10.1401 94.7441 10.0811 95.0484 10.0811C95.3671 10.0811 95.6339 10.1509 95.8487 10.2905C96.0636 10.4266 96.2372 10.6182 96.3697 10.8652C96.5058 11.1123 96.6096 11.4041 96.6812 11.7407C96.7564 12.0773 96.8137 12.4461 96.8531 12.8472V13.4058C96.8137 13.7853 96.7493 14.1398 96.6598 14.4692C96.5738 14.7987 96.4592 15.0851 96.316 15.3286C96.1728 15.5721 95.9973 15.7637 95.7896 15.9033C95.582 16.0394 95.3313 16.1074 95.0377 16.1074C94.7369 16.1074 94.4648 16.0465 94.2213 15.9248C93.9814 15.8031 93.7755 15.624 93.6036 15.3877C93.4353 15.1478 93.3064 14.8542 93.2169 14.5068C93.1274 14.1559 93.0826 13.7531 93.0826 13.2983ZM94.5919 12.9116V13.2983C94.5919 13.5705 94.608 13.805 94.6402 14.002C94.676 14.1953 94.7297 14.3547 94.8014 14.48C94.873 14.6017 94.9643 14.693 95.0753 14.7539C95.1899 14.8112 95.3241 14.8398 95.4781 14.8398C95.6965 14.8398 95.8702 14.7897 95.9991 14.6895C96.1316 14.5856 96.2283 14.4442 96.2892 14.2651C96.3536 14.0825 96.3894 13.873 96.3966 13.6367V12.6216C96.393 12.4246 96.3697 12.2474 96.3268 12.0898C96.2874 11.9323 96.2319 11.798 96.1602 11.687C96.0886 11.576 95.9955 11.4901 95.881 11.4292C95.7699 11.3683 95.6393 11.3379 95.4889 11.3379C95.3349 11.3379 95.2024 11.3683 95.0914 11.4292C94.9804 11.4901 94.8873 11.585 94.8121 11.7139C94.7405 11.8392 94.685 12.0021 94.6456 12.2026C94.6098 12.3996 94.5919 12.6359 94.5919 12.9116ZM100.393 10.1885V16H98.8834V10.1885H100.393ZM98.8136 8.6792C98.8136 8.44645 98.887 8.25488 99.0338 8.10449C99.1842 7.9541 99.3865 7.87891 99.6407 7.87891C99.8914 7.87891 100.09 7.9541 100.237 8.10449C100.384 8.25488 100.457 8.44645 100.457 8.6792C100.457 8.91195 100.384 9.10531 100.237 9.25928C100.09 9.40967 99.8914 9.48486 99.6407 9.48486C99.3865 9.48486 99.1842 9.40967 99.0338 9.25928C98.887 9.10531 98.8136 8.91195 98.8136 8.6792ZM103.062 11.4292V16H101.553V10.1885H102.96L103.062 11.4292ZM102.837 12.8955L102.434 12.9062C102.427 12.4694 102.468 12.0773 102.557 11.73C102.65 11.3826 102.781 11.0872 102.949 10.8438C103.121 10.5967 103.325 10.4087 103.562 10.2798C103.798 10.1473 104.065 10.0811 104.362 10.0811C104.587 10.0811 104.793 10.1204 104.98 10.1992C105.169 10.278 105.332 10.4033 105.468 10.5752C105.604 10.7471 105.71 10.9744 105.785 11.2573C105.86 11.5402 105.898 11.8893 105.898 12.3047V16H104.389V12.2939C104.389 12.0433 104.364 11.8499 104.314 11.7139C104.263 11.5742 104.188 11.4775 104.088 11.4238C103.991 11.3665 103.866 11.3379 103.712 11.3379C103.569 11.3379 103.442 11.3773 103.331 11.4561C103.22 11.5348 103.127 11.6458 103.051 11.7891C102.98 11.9287 102.924 12.0934 102.885 12.2832C102.849 12.473 102.833 12.6771 102.837 12.8955ZM109.341 16.1074C108.943 16.1074 108.591 16.0465 108.283 15.9248C107.978 15.8031 107.721 15.6276 107.509 15.3984C107.298 15.1657 107.137 14.8846 107.026 14.5552C106.915 14.2257 106.859 13.8498 106.859 13.4272V12.9492C106.859 12.4766 106.913 12.063 107.021 11.7085C107.128 11.3504 107.28 11.0496 107.477 10.8062C107.674 10.5627 107.916 10.3818 108.202 10.2637C108.492 10.1419 108.82 10.0811 109.185 10.0811C109.55 10.0811 109.871 10.1419 110.147 10.2637C110.426 10.3818 110.657 10.5609 110.839 10.8008C111.022 11.0371 111.16 11.3307 111.253 11.6816C111.346 12.0326 111.393 12.4408 111.393 12.9062V13.5938H107.499V12.5356H109.916V12.4014C109.916 12.165 109.891 11.9681 109.84 11.8105C109.79 11.6494 109.712 11.5295 109.604 11.4507C109.497 11.3719 109.353 11.3325 109.174 11.3325C109.024 11.3325 108.897 11.363 108.793 11.4238C108.689 11.4847 108.607 11.5796 108.546 11.7085C108.485 11.8374 108.44 12.0057 108.412 12.2134C108.383 12.4175 108.369 12.6628 108.369 12.9492V13.4272C108.369 13.6958 108.392 13.9214 108.439 14.104C108.485 14.283 108.553 14.4299 108.643 14.5444C108.736 14.6554 108.849 14.736 108.981 14.7861C109.114 14.8327 109.268 14.856 109.443 14.856C109.708 14.856 109.946 14.8094 110.157 14.7163C110.372 14.6196 110.555 14.4889 110.705 14.3242L111.307 15.2373C111.203 15.3734 111.06 15.5094 110.877 15.6455C110.694 15.7816 110.476 15.8926 110.222 15.9785C109.968 16.0645 109.674 16.1074 109.341 16.1074ZM114.605 16.1074C114.207 16.1074 113.854 16.0465 113.546 15.9248C113.242 15.8031 112.984 15.6276 112.773 15.3984C112.562 15.1657 112.401 14.8846 112.29 14.5552C112.179 14.2257 112.123 13.8498 112.123 13.4272V12.9492C112.123 12.4766 112.177 12.063 112.284 11.7085C112.392 11.3504 112.544 11.0496 112.741 10.8062C112.938 10.5627 113.179 10.3818 113.466 10.2637C113.756 10.1419 114.084 10.0811 114.449 10.0811C114.814 10.0811 115.135 10.1419 115.41 10.2637C115.69 10.3818 115.921 10.5609 116.103 10.8008C116.286 11.0371 116.424 11.3307 116.517 11.6816C116.61 12.0326 116.656 12.4408 116.656 12.9062V13.5938H112.762V12.5356H115.179V12.4014C115.179 12.165 115.154 11.9681 115.104 11.8105C115.054 11.6494 114.975 11.5295 114.868 11.4507C114.76 11.3719 114.617 11.3325 114.438 11.3325C114.288 11.3325 114.161 11.363 114.057 11.4238C113.953 11.4847 113.871 11.5796 113.81 11.7085C113.749 11.8374 113.704 12.0057 113.675 12.2134C113.647 12.4175 113.632 12.6628 113.632 12.9492V13.4272C113.632 13.6958 113.656 13.9214 113.702 14.104C113.749 14.283 113.817 14.4299 113.906 14.5444C113.999 14.6554 114.112 14.736 114.245 14.7861C114.377 14.8327 114.531 14.856 114.707 14.856C114.972 14.856 115.21 14.8094 115.421 14.7163C115.636 14.6196 115.818 14.4889 115.969 14.3242L116.57 15.2373C116.467 15.3734 116.323 15.5094 116.141 15.6455C115.958 15.7816 115.74 15.8926 115.485 15.9785C115.231 16.0645 114.938 16.1074 114.605 16.1074ZM119.03 11.4829V16H117.526V10.1885H118.944L119.03 11.4829ZM120.4 10.1455L120.379 11.644C120.31 11.6297 120.228 11.619 120.131 11.6118C120.038 11.6047 119.956 11.6011 119.884 11.6011C119.716 11.6011 119.573 11.6279 119.455 11.6816C119.337 11.7318 119.238 11.8088 119.159 11.9126C119.084 12.0129 119.027 12.1382 118.987 12.2886C118.948 12.439 118.925 12.609 118.918 12.7988L118.633 12.6914C118.633 12.3118 118.662 11.9645 118.719 11.6494C118.78 11.3307 118.869 11.055 118.987 10.8223C119.106 10.5859 119.247 10.4033 119.412 10.2744C119.58 10.1455 119.77 10.0811 119.981 10.0811C120.053 10.0811 120.128 10.0882 120.207 10.1025C120.289 10.1133 120.353 10.1276 120.4 10.1455Z" fill="white"/>
</g>
<defs>
<clipPath id="clip0_78_821">
<rect width="129" height="25" rx="3" fill="white"/>
</clipPath>
</defs>
</svg>
